<svg width="510" height="159" viewBox="0 0 510 159" fill="none" xmlns="http://www.w3.org/2000/svg">
  <path
    d="M-157 23.6356C-156.381 79.1207 -112.425 128.645 -32.793 148.972C52.3826 170.713 136.323 150.792 148.192 147.853C164.907 143.71 177.989 139.032 189.28 133.871C235.669 112.668 248.768 99.1603 274.009 84.5874C377.768 24.6821 509.268 23.6356 509.268 23.6356H-157Z"
    fill="url(#paint0_linear_14_793)" />
  <mask id="mask0_14_793" style="mask-type:alpha" maskUnits="userSpaceOnUse" x="-1" y="0"
    width="149" height="159">
    <path
      d="M-0.235031 155.404C53.9258 162.687 105.528 157.78 147.765 148.006L147.767 0.000106812H-0.235031V155.404Z"
      fill="#464646" />
  </mask>
  <g mask="url(#mask0_14_793)">
    <path
      d="M51.7695 135.127C51.6034 146.372 55.7409 155.21 58.2654 159.006C65.6651 158.986 73.8078 158.665 81.2075 158.645C88.6988 158.766 96.1902 158.885 103.682 159.006C105.888 154.354 109.06 146.011 108.743 135.376C108.661 132.605 108.505 128.841 107.058 124.159C102.195 108.424 87.9469 101.558 86.9134 101.096C85.4268 100.43 83.8096 99.8476 83.8096 99.8476C82.7988 99.4848 81.9174 99.2079 81.2247 99.0059C80.7544 99.1471 80.0855 99.3545 79.2861 99.6184C79.2861 99.6184 76.9688 100.384 75.0668 101.149C67.5582 104.169 62.1446 109.72 62.1446 109.72C57.5326 114.449 55.1916 119.476 54.0113 122.692C53.4989 124.086 51.8612 128.83 51.7684 135.128L51.7695 135.127Z"
      fill="url(#paint1_linear_14_793)" />
    <path
      d="M-37.227 115.229C-37.5327 135.847 -28.5432 151.497 -23.8928 158.455C-22.0609 158.45 -20.229 158.445 -18.397 158.44C-6.59776 158.408 5.20149 158.376 17.0007 158.344C30.801 158.565 44.6002 158.785 58.4005 159.006C62.4655 150.478 68.3071 135.181 67.725 115.684C67.5733 110.602 67.2871 103.702 64.6216 95.1199C55.6635 66.2717 29.4157 53.6859 27.5122 52.8366C24.773 51.6147 21.7952 50.5492 21.7952 50.5492C19.934 49.8834 18.3102 49.3773 17.0343 49.0059C16.1682 49.2654 14.9346 49.6445 13.4637 50.1278C13.4637 50.1278 9.1949 51.5311 5.69253 52.9343C-8.1392 58.4724 -18.1119 68.6481 -18.1119 68.6481C-26.6082 77.3175 -30.9193 86.5331 -33.0949 92.4296C-34.0379 94.9874 -37.0547 103.685 -37.226 115.229H-37.227Z"
      fill="url(#paint2_linear_14_793)" />
    <path
      d="M59.7612 17.94V79.0059C59.6696 78.8568 59.5781 78.7077 59.4844 78.5608C59.4567 78.5161 59.429 78.4735 59.4014 78.4288C59.312 78.2861 59.2247 78.1456 59.1353 78.005C59.131 77.9986 59.1268 77.9923 59.1225 77.9859C59.0161 77.8155 58.9075 77.6473 58.7968 77.4812C58.7032 77.3364 58.6095 77.1916 58.5115 77.0468C58.437 76.9318 58.3604 76.8189 58.2859 76.7039C58.2561 76.6592 58.2263 76.6145 58.1965 76.5698C58.1539 76.5059 58.1113 76.442 58.0666 76.376C58.0496 76.3505 58.0325 76.327 58.0155 76.3015C57.9985 76.2759 57.9793 76.2482 57.9623 76.2227C57.9389 76.1886 57.9176 76.1546 57.8942 76.1205C57.8495 76.0545 57.8048 75.9884 57.7601 75.9246C57.5621 75.635 57.3641 75.3496 57.1619 75.0643C57.0554 74.9131 56.949 74.7619 56.8404 74.6128C56.8127 74.5745 56.7851 74.5341 56.7574 74.4957C56.6787 74.385 56.5999 74.2764 56.519 74.1656C56.4508 74.072 56.3827 73.9761 56.3125 73.8824C56.3082 73.8761 56.304 73.8697 56.2976 73.8633C56.2678 73.8207 56.2337 73.776 56.2018 73.7334C56.1954 73.7249 56.189 73.7163 56.1827 73.7078C56.1252 73.629 56.0656 73.5481 56.0059 73.4693C56.0059 73.4693 56.0059 73.4672 56.0038 73.4651C55.9847 73.4395 55.9655 73.414 55.9463 73.3884C55.9208 73.3543 55.8953 73.3203 55.8697 73.2862C55.8335 73.2372 55.7952 73.1861 55.759 73.1371C55.6888 73.0434 55.6185 72.9497 55.5483 72.8582C55.4674 72.7496 55.3843 72.6431 55.3013 72.5345C55.0884 72.2577 54.8755 71.983 54.6584 71.7104C54.569 71.5975 54.4796 71.4847 54.3881 71.3718C54.3093 71.2739 54.2305 71.1759 54.1518 71.078C54.1496 71.0737 54.1454 71.0673 54.1411 71.0631C54.0602 70.963 53.9794 70.8629 53.8985 70.7628C53.8836 70.7415 53.8665 70.7223 53.8495 70.701C53.7431 70.5712 53.6366 70.4413 53.528 70.3114C53.4046 70.1623 53.279 70.0111 53.1512 69.8621C53.1023 69.8046 53.0533 69.7449 53.0022 69.6874C52.9086 69.5746 52.8128 69.4639 52.717 69.3531C52.651 69.2765 52.5871 69.2019 52.5211 69.1253C52.5062 69.1082 52.4934 69.0912 52.4785 69.0763C52.4551 69.0486 52.4296 69.0209 52.4062 68.9932C52.3721 68.9549 52.3381 68.9166 52.304 68.8761C52.1826 68.7377 52.0634 68.6014 51.94 68.463C51.9208 68.4417 51.9017 68.4204 51.8846 68.3991C51.8719 68.3864 51.8612 68.3736 51.8505 68.3608C51.7377 68.233 51.6249 68.1074 51.51 67.9796C51.4205 67.8795 51.329 67.7795 51.2375 67.6794C51.1779 67.6134 51.1161 67.5452 51.0544 67.4792C50.8032 67.2045 50.5477 66.932 50.2922 66.6615C50.156 66.5167 50.0176 66.3719 49.8793 66.2292C49.7494 66.0951 49.6196 65.9609 49.4897 65.8268C48.9235 65.2476 48.3487 64.6769 47.7654 64.1147V17.9357C47.7654 14.8651 50.0709 12.3332 53.0448 11.9776C53.3343 7.98698 53.6259 3.99643 53.9155 0.00585938C54.2156 4.00707 54.5158 8.00828 54.8159 12.0095C55.2864 12.0968 57.0831 12.4865 58.4328 14.1645C59.6952 15.7339 59.7633 17.4311 59.7654 17.9357L59.7612 17.94Z"
      fill="url(#paint3_linear_14_793)" />
    <path
      d="M104.763 76.3566V115.006C104.702 114.912 104.641 114.817 104.578 114.724C104.56 114.696 104.541 114.669 104.523 114.641C104.463 114.55 104.405 114.461 104.345 114.372C104.342 114.368 104.34 114.364 104.337 114.36C104.266 114.252 104.193 114.146 104.12 114.041C104.057 113.949 103.995 113.858 103.929 113.766C103.88 113.693 103.829 113.622 103.779 113.549C103.759 113.521 103.739 113.492 103.719 113.464C103.691 113.424 103.663 113.383 103.633 113.341C103.622 113.325 103.61 113.31 103.599 113.294C103.587 113.278 103.575 113.261 103.563 113.244C103.548 113.223 103.534 113.201 103.518 113.18C103.488 113.138 103.458 113.096 103.429 113.056C103.297 112.872 103.165 112.692 103.03 112.511C102.959 112.415 102.888 112.32 102.815 112.225C102.797 112.201 102.779 112.176 102.76 112.151C102.708 112.081 102.655 112.013 102.601 111.942C102.556 111.883 102.51 111.822 102.463 111.763C102.461 111.759 102.458 111.755 102.454 111.751C102.434 111.724 102.411 111.696 102.39 111.669C102.385 111.663 102.381 111.658 102.377 111.653C102.339 111.603 102.299 111.552 102.259 111.502L102.258 111.499C102.245 111.483 102.232 111.467 102.219 111.451C102.202 111.429 102.185 111.407 102.168 111.386C102.144 111.355 102.119 111.322 102.094 111.291C102.048 111.232 102.001 111.173 101.954 111.115C101.9 111.046 101.845 110.979 101.789 110.91C101.647 110.735 101.505 110.561 101.361 110.388C101.301 110.317 101.242 110.246 101.181 110.174C101.128 110.112 101.075 110.05 101.023 109.988C101.022 109.986 101.019 109.981 101.016 109.979C100.962 109.915 100.908 109.852 100.854 109.789C100.844 109.775 100.833 109.763 100.821 109.75C100.75 109.667 100.68 109.585 100.607 109.503C100.525 109.409 100.441 109.313 100.356 109.219C100.323 109.182 100.291 109.145 100.257 109.108C100.194 109.037 100.13 108.967 100.066 108.897C100.022 108.848 99.9799 108.801 99.9359 108.752C99.9259 108.742 99.9174 108.731 99.9075 108.721C99.8919 108.704 99.8749 108.686 99.8592 108.669C99.8365 108.645 99.8138 108.62 99.7911 108.595C99.7102 108.507 99.6308 108.421 99.5484 108.333C99.5357 108.32 99.5229 108.306 99.5115 108.293C99.503 108.285 99.4959 108.277 99.4888 108.268C99.4136 108.188 99.3384 108.108 99.2618 108.027C99.2022 107.964 99.1411 107.901 99.0801 107.837C99.0404 107.795 98.9992 107.752 98.958 107.711C98.7906 107.537 98.6203 107.364 98.45 107.193C98.3591 107.101 98.2669 107.01 98.1746 106.919C98.0881 106.834 98.0015 106.75 97.9149 106.665C97.5374 106.298 97.1542 105.937 96.7654 105.581V76.3539C96.7654 74.4104 98.3024 72.808 100.285 72.5829C100.478 70.0572 100.672 67.5315 100.865 65.0059C101.066 67.5383 101.266 70.0707 101.466 72.6031C101.779 72.6584 102.977 72.905 103.877 73.967C104.719 74.9603 104.764 76.0345 104.765 76.3539L104.763 76.3566Z"
      fill="url(#paint4_linear_14_793)" />
  </g>
  <defs>
    <linearGradient id="paint0_linear_14_793" x1="165.417" y1="23.3588" x2="165.39" y2="401.953"
      gradientUnits="userSpaceOnUse">
      <stop stop-color="#EFEFEF" />
      <stop offset="1" stop-color="#93A494" />
    </linearGradient>
    <linearGradient id="paint1_linear_14_793" x1="108.765" y1="129.004" x2="51.7652" y2="129.004"
      gradientUnits="userSpaceOnUse">
      <stop stop-color="#C5D3CB" />
      <stop offset="1" stop-color="#8D9793" />
    </linearGradient>
    <linearGradient id="paint2_linear_14_793" x1="67.7651" y1="100.078" x2="-37.2346" y2="100.078"
      gradientUnits="userSpaceOnUse">
      <stop stop-color="#9DB8A9" />
      <stop offset="1" stop-color="#66736E" />
    </linearGradient>
    <linearGradient id="paint3_linear_14_793" x1="47.7611" y1="39.5091" x2="59.7611" y2="39.5091"
      gradientUnits="userSpaceOnUse">
      <stop stop-color="#768D81" />
      <stop offset="1" stop-color="#97ACA3" />
    </linearGradient>
    <linearGradient id="paint4_linear_14_793" x1="96.7625" y1="90.0079" x2="104.763" y2="90.0079"
      gradientUnits="userSpaceOnUse">
      <stop stop-color="#9BAAA2" />
      <stop offset="1" stop-color="#B1C2BB" />
    </linearGradient>
  </defs>
</svg>